Coordinates
version=1
nRows=17
nColumns=24
inDegrees=yes

Units are S.I. units (second, meters, Newtons, ...)
Angles are in degrees.

endheader
time	pelvis_tilt	pelvis_list	pelvis_rotation	pelvis_tx	pelvis_ty	pelvis_tz	hip_flexion_r	hip_adduction_r	hip_rotation_r	knee_angle_r	ankle_angle_r	subtalar_angle_r	mtp_angle_r	hip_flexion_l	hip_adduction_l	hip_rotation_l	knee_angle_l	ankle_angle_l	subtalar_angle_l	mtp_angle_l	lumbar_extension	lumbar_bending	lumbar_rotation
      1.20500000	     -9.59279718	     -3.30910865	     -1.99273723	     -0.58879760	      1.21608439	     -0.90212967	     -5.10747167	     10.86235840	      7.12049206	     -8.93699481	      8.59214401	     -4.03859634	      9.76453655	     33.98213502	      3.36854139	      8.29349530	     -7.15033544	     -1.02280578	     -6.39653616	      8.70439938	     -3.75527300	      4.33630936	      5.55416812
      1.21000000	     -9.57111531	     -3.29118965	     -2.06727484	     -0.58261200	      1.21565861	     -0.90201997	     -5.18350679	     10.80114158	      7.10982118	     -9.71606020	      8.77176086	     -3.44934935	     10.45639285	     34.02390437	      3.49097577	      8.22121061	     -7.84770756	     -1.53168488	     -6.29058656	      8.74577610	     -3.72089748	      4.24400692	      5.47440609
      1.21500000	     -9.53130664	     -3.26661256	     -2.13709737	     -0.57642125	      1.21531479	     -0.90190603	     -5.24682768	     10.73500260	      7.11916413	    -10.53886972	      8.84326002	     -2.96132587	     11.15583224	     34.04759000	      3.62271078	      8.22514315	     -8.58752940	     -2.20236789	     -6.38460385	      8.86713351	     -3.70647660	      4.13518950	      5.42666605
      1.22000000	     -9.47244817	     -3.21925533	     -2.17732692	     -0.57018026	      1.21505278	     -0.90180250	     -5.28888724	     10.64261343	      7.04378168	    -11.42612257	      8.89745654	     -2.41595106	     11.95044495	     34.05446155	      3.78923231	      8.27604984	     -9.36449475	     -3.00386624	     -6.54631039	      9.00863757	     -3.70702775	      3.98773057	      5.35741558
      1.22500000	     -9.43130602	     -3.14628123	     -2.24381141	     -0.56392037	      1.21487102	     -0.90163374	     -5.23494306	     10.53026658	      6.98274975	    -12.44039284	      8.92615859	     -1.87064659	     12.67916023	     34.08901720	      3.95426128	      8.28323612	    -10.18945590	     -3.84053053	     -6.66648539	      9.08339022	     -3.68721699	      3.80041319	      5.33760314
      1.23000000	     -9.30589755	     -3.06820947	     -2.20265142	     -0.55758674	      1.21479041	     -0.90162595	     -5.25353095	     10.39048056	      6.64902153	    -13.46143407	      8.90260830	     -1.18393236	     13.77405468	     34.05308299	      4.19751461	      8.43252814	    -11.07458723	     -4.71937783	     -6.97962649	      9.21404820	     -3.74973793	      3.60098567	      5.19233677
      1.23500000	     -9.23621543	     -2.96538424	     -2.20073151	     -0.55124809	      1.21475644	     -0.90151534	     -5.10994318	     10.23756250	      6.35772706	    -14.65433325	      8.85935436	     -0.52367668	     14.74560608	     34.07494987	      4.42152776	      8.52155599	    -11.97246966	     -5.61133716	     -7.14366526	      9.26198946	     -3.75136117	      3.36046419	      5.11409636
      1.24000000	     -9.07311327	     -2.84839086	     -2.12819936	     -0.54483472	      1.21487835	     -0.90150588	     -5.05078303	     10.04673023	      5.88602877	    -15.84596292	      8.71341959	      0.16790897	     16.04642886	     33.98916587	      4.70439690	      8.68464070	    -12.88862695	     -6.47711171	     -7.44472522	      9.31667751	     -3.84475795	      3.09857918	      4.96595208
      1.24500000	     -8.98726568	     -2.71832874	     -2.07346943	     -0.53842607	      1.21499418	     -0.90145784	     -4.78369324	      9.84753065	      5.38474254	    -17.24684865	      8.54052197	      0.89433596	     17.14668781	     33.99881192	      4.97703363	      8.82289483	    -13.84101875	     -7.26704323	     -7.55988235	      9.30201535	     -3.85892654	      2.82073685	      4.84785682
      1.25000000	     -8.82720180	     -2.57301301	     -1.97247683	     -0.53196644	      1.21524426	     -0.90148083	     -4.55194369	      9.60506740	      4.73157504	    -18.69708238	      8.28735908	      1.66938537	     18.50043564	     33.90717885	      5.29334962	      8.99984600	    -14.78410230	     -7.98227704	     -7.75114876	      9.25038722	     -3.94751526	      2.52087399	      4.70086097
      1.25500000	     -8.65629290	     -2.41835457	     -1.85939919	     -0.52548816	      1.21557331	     -0.90149976	     -4.25885307	      9.34013572	      4.02181489	    -20.25005438	      7.94545638	      2.39266333	     19.96483917	     33.79440238	      5.62137297	      9.17015092	    -15.73319386	     -8.58930819	     -7.95946196	      9.17900966	     -4.03817890	      2.19805588	      4.58654841
      1.26000000	     -8.46501907	     -2.23922342	     -1.74771435	     -0.51897652	      1.21601468	     -0.90151166	     -3.91117832	      9.02952891	      3.27679476	    -21.91141746	      7.47167120	      3.07548606	     21.58296474	     33.59250811	      5.96270533	      9.34265706	    -16.58058664	     -9.11835762	     -8.14181671	      9.08272473	     -4.15222301	      1.85280344	      4.42849431
      1.26500000	     -8.32497122	     -2.06742628	     -1.59725298	     -0.51250027	      1.21640415	     -0.90160935	     -3.40114326	      8.69984553	      2.40030668	    -23.74219968	      6.93166832	      3.82131097	     22.84043937	     33.48552453	      6.32876735	      9.55589152	    -17.51442190	     -9.47685407	     -8.22129590	      9.01032525	     -4.21261957	      1.51863394	      4.31278915
      1.27000000	     -8.16730075	     -1.86450605	     -1.44736600	     -0.50599646	      1.21688156	     -0.90171440	     -2.83625235	      8.30253858	      1.48557891	    -25.66966179	      6.26910534	      4.54608609	     24.28015916	     33.28097899	      6.72031823	      9.77517612	    -18.32657858	     -9.76013285	     -8.35029209	      8.89472361	     -4.28613076	      1.15727409	      4.17473723
      1.27500000	     -8.01862632	     -1.63770088	     -1.29197197	     -0.49948851	      1.21738749	     -0.90182982	     -2.19288815	      7.85051314	      0.55590660	    -27.68639572	      5.44446568	      5.17804422	     25.67211415	     33.04127017	      7.13703788	      9.99905177	    -19.07340354	     -9.94360748	     -8.48207144	      8.78530158	     -4.34811906	      0.76970223	      4.04358189
      1.28000000	     -7.85110548	     -1.37099779	     -1.15613267	     -0.49296850	      1.21797984	     -0.90192453	     -1.51909868	      7.32525910	     -0.33339931	    -29.74262145	      4.45282999	      5.68625913	     27.22873762	     32.69437026	      7.57446564	     10.19766417	    -19.68122716	    -10.06228559	     -8.67305182	      8.64580007	     -4.42397037	      0.34834619	      3.93293565
      1.28500000	     -7.72524761	     -1.09384386	     -0.98990797	     -0.48650496	      1.21849470	     -0.90208492	     -0.73308494	      6.75455069	     -1.26046064	    -31.87955442	      3.31566988	      6.14416372	     28.37628446	     32.38588567	      8.04325325	     10.42205645	    -20.27983242	    -10.06986066	     -8.80608123	      8.56368601	     -4.46152806	     -0.07681868	      3.82501279
